<svg xmlns="http://www.w3.org/2000/svg" viewBox="0 0 256 256" focusable="false" color="var(--token-52705ec4-23f8-42e3-b22f-e48f913efab6, rgb(255, 255, 255)) /* {&quot;name&quot;:&quot;Text Secondary&quot;} */" style="user-select: none; width: 100%; height: 100%; display: inline-block; fill: var(--token-52705ec4-23f8-42e3-b22f-e48f913efab6, rgb(255, 255, 255)); color: var(--token-52705ec4-23f8-42e3-b22f-e48f913efab6, rgb(255, 255, 255)); flex-shrink: 0;"><g color="var(--token-52705ec4-23f8-42e3-b22f-e48f913efab6, rgb(255, 255, 255)) /* {&quot;name&quot;:&quot;Text Secondary&quot;} */" weight="bold"><path d="M224,44H32A12,12,0,0,0,20,56V192a20,20,0,0,0,20,20H216a20,20,0,0,0,20-20V56A12,12,0,0,0,224,44Zm-96,83.72L62.85,68h130.3ZM92.79,128,44,172.72V83.28Zm17.76,16.28,9.34,8.57a12,12,0,0,0,16.22,0l9.34-8.57L193.15,188H62.85ZM163.21,128,212,83.28v89.44Z"></path></g></svg>